<svg 
 xmlns="http://www.w3.org/2000/svg"
 xmlns:xlink="http://www.w3.org/1999/xlink"
 width="2.5in" height="0.694in">
<path fill-rule="evenodd"  fill="rgb(185, 0, 0)"
 d="M178.251,34.964 C177.093,38.020 175.455,40.665 173.338,42.898 C171.221,45.131 168.674,46.873 165.697,48.125 C162.719,49.376 159.411,50.002 155.773,50.002 C152.155,50.002 148.859,49.376 145.882,48.125 C142.904,46.873 140.352,45.131 138.224,42.898 C136.095,40.665 134.447,38.020 133.278,34.964 C132.109,31.908 131.525,28.587 131.525,25.000 C131.525,21.414 132.109,18.093 133.278,15.037 C134.447,11.981 136.095,9.336 138.224,7.103 C140.352,4.870 142.904,3.128 145.882,1.876 C148.859,0.624 152.155,-0.002 155.773,-0.002 C158.198,-0.002 160.481,0.286 162.620,0.861 C164.759,1.436 166.722,2.248 168.508,3.297 C170.295,4.346 171.899,5.620 173.322,7.120 C174.744,8.620 175.951,10.295 176.944,12.144 C177.936,13.994 178.691,16.001 179.210,18.166 C179.728,20.332 179.987,22.610 179.987,25.000 C179.987,28.587 179.408,31.908 178.251,34.964 ZM169.832,17.777 C169.126,15.646 168.122,13.836 166.821,12.347 C165.520,10.859 163.938,9.720 162.074,8.930 C160.211,8.141 158.110,7.746 155.773,7.746 C153.435,7.746 151.334,8.141 149.471,8.930 C147.607,9.720 146.019,10.859 144.707,12.347 C143.395,13.836 142.386,15.646 141.680,17.777 C140.975,19.909 140.622,22.317 140.622,25.000 C140.622,27.685 140.975,30.092 141.680,32.224 C142.386,34.355 143.395,36.160 144.707,37.637 C146.019,39.114 147.607,40.248 149.471,41.037 C151.334,41.827 153.435,42.221 155.773,42.221 C158.110,42.221 160.211,41.827 162.074,41.037 C163.938,40.248 165.520,39.114 166.821,37.637 C168.122,36.160 169.126,34.355 169.832,32.224 C170.537,30.092 170.890,27.685 170.890,25.000 C170.890,22.317 170.537,19.909 169.832,17.777 ZM109.389,50.002 C105.486,50.002 101.951,49.382 98.787,48.141 C95.622,46.901 92.921,45.176 90.683,42.965 C88.444,40.755 86.718,38.116 85.506,35.049 C84.292,31.981 83.686,28.632 83.686,25.000 C83.686,21.324 84.270,17.952 85.439,14.885 C86.608,11.817 88.268,9.179 90.418,6.968 C92.568,4.758 95.176,3.043 98.241,1.825 C101.306,0.607 104.747,-0.002 108.562,-0.002 C110.503,-0.002 112.317,0.156 114.004,0.472 C115.691,0.788 117.257,1.222 118.701,1.775 C120.145,2.327 121.463,2.998 122.654,3.788 C123.845,4.577 124.937,5.445 125.929,6.393 L123.382,10.520 C122.985,11.175 122.467,11.575 121.827,11.721 C121.188,11.868 120.493,11.704 119.743,11.231 C119.016,10.802 118.288,10.374 117.560,9.945 C116.832,9.517 116.022,9.145 115.129,8.829 C114.235,8.513 113.232,8.253 112.118,8.050 C111.005,7.847 109.720,7.746 108.265,7.746 C105.905,7.746 103.771,8.152 101.864,8.964 C99.956,9.776 98.329,10.938 96.984,12.449 C95.639,13.960 94.602,15.776 93.875,17.896 C93.147,20.016 92.783,22.384 92.783,25.000 C92.783,27.797 93.174,30.295 93.957,32.494 C94.740,34.693 95.843,36.554 97.266,38.076 C98.688,39.599 100.402,40.761 102.409,41.561 C104.416,42.362 106.654,42.762 109.125,42.762 C110.889,42.762 112.466,42.571 113.855,42.187 C115.245,41.804 116.601,41.285 117.924,40.631 L117.924,31.767 L111.903,31.767 C111.330,31.767 110.883,31.603 110.564,31.276 C110.244,30.949 110.084,30.549 110.084,30.075 L110.084,24.933 L125.962,24.933 L125.962,44.724 C123.536,46.551 120.951,47.888 118.205,48.734 C115.459,49.579 112.520,50.002 109.389,50.002 ZM71.553,42.898 C69.436,45.131 66.889,46.873 63.912,48.125 C60.935,49.376 57.627,50.002 53.988,50.002 C50.371,50.002 47.074,49.376 44.097,48.125 C41.120,46.873 38.567,45.131 36.439,42.898 C34.310,40.665 32.662,38.020 31.493,34.964 C30.324,31.908 29.740,28.587 29.740,25.000 C29.740,21.414 30.324,18.093 31.493,15.037 C32.662,11.981 34.310,9.336 36.439,7.103 C38.567,4.870 41.120,3.128 44.097,1.876 C47.074,0.624 50.371,-0.002 53.988,-0.002 C56.414,-0.002 58.696,0.286 60.835,0.861 C62.974,1.436 64.937,2.248 66.724,3.297 C68.510,4.346 70.114,5.620 71.537,7.120 C72.959,8.620 74.167,10.295 75.159,12.144 C76.152,13.994 76.907,16.001 77.425,18.166 C77.943,20.332 78.202,22.610 78.202,25.000 C78.202,28.587 77.624,31.908 76.466,34.964 C75.308,38.020 73.671,40.665 71.553,42.898 ZM68.047,17.777 C67.341,15.646 66.338,13.836 65.037,12.347 C63.735,10.859 62.153,9.720 60.290,8.930 C58.426,8.141 56.325,7.746 53.988,7.746 C51.650,7.746 49.549,8.141 47.686,8.930 C45.822,9.720 44.234,10.859 42.923,12.347 C41.610,13.836 40.601,15.646 39.896,17.777 C39.190,19.909 38.837,22.317 38.837,25.000 C38.837,27.685 39.190,30.092 39.896,32.224 C40.601,34.355 41.610,36.160 42.923,37.637 C44.234,39.114 45.822,40.248 47.686,41.037 C49.549,41.827 51.650,42.221 53.988,42.221 C56.325,42.221 58.426,41.827 60.290,41.037 C62.153,40.248 63.735,39.114 65.037,37.637 C66.338,36.160 67.341,34.355 68.047,32.224 C68.752,30.092 69.105,27.685 69.105,25.000 C69.105,22.317 68.752,19.909 68.047,17.777 ZM0.014,0.540 L8.912,0.540 L8.912,41.950 L28.033,41.950 L28.033,49.461 L0.014,49.461 L0.014,0.540 Z"/>
</svg>