<svg 
 xmlns="http://www.w3.org/2000/svg"
 xmlns:xlink="http://www.w3.org/1999/xlink"
 width="21px" height="15px">
<path fill-rule="evenodd"  fill="rgb(25, 25, 25)"
 d="M18.480,15.000 L2.520,15.000 C1.128,15.000 -0.000,13.939 -0.000,12.631 L-0.000,2.368 C-0.000,1.060 1.128,-0.000 2.520,-0.000 L18.480,-0.000 C19.872,-0.000 21.000,1.060 21.000,2.368 L21.000,12.631 C21.000,13.939 19.872,15.000 18.480,15.000 ZM19.320,12.216 L19.320,3.497 L13.799,7.606 L19.320,12.216 ZM18.200,13.421 L12.444,8.614 L10.500,10.061 L8.556,8.614 L2.800,13.421 L18.200,13.421 ZM7.200,7.606 L1.680,3.497 L1.680,12.216 L7.200,7.606 ZM2.520,1.579 C2.343,1.579 2.189,1.642 2.054,1.729 L10.500,8.096 L18.946,1.729 C18.811,1.642 18.656,1.579 18.480,1.579 L2.520,1.579 Z"/>
</svg>