<svg 
 xmlns="http://www.w3.org/2000/svg"
 xmlns:xlink="http://www.w3.org/1999/xlink"
 width="25px" height="21px">
<path fill-rule="evenodd"  fill="white"
 d="M24.661,0.222 C24.309,-0.060 23.741,-0.086 22.766,0.196 L22.766,0.196 C22.090,0.401 16.080,2.549 10.775,4.623 C6.011,6.490 2.139,8.128 1.679,8.332 C1.165,8.486 0.055,8.946 0.001,9.663 C-0.026,10.124 0.380,10.533 1.165,10.865 C2.004,11.274 5.713,12.452 6.498,12.682 C6.769,13.552 8.366,18.643 8.447,18.951 C8.555,19.411 8.880,19.668 9.042,19.769 C9.069,19.796 9.123,19.846 9.178,19.871 C9.259,19.923 9.367,19.948 9.503,19.948 C9.692,19.948 9.909,19.871 10.098,19.744 C11.100,18.976 12.832,17.263 13.319,16.776 C15.458,18.361 17.786,20.127 18.002,20.332 L18.029,20.358 C18.544,20.766 19.085,20.997 19.572,20.997 C19.735,20.997 19.897,20.972 20.060,20.921 C20.628,20.741 21.034,20.230 21.170,19.539 C21.170,19.513 21.197,19.411 21.251,19.232 C22.171,15.445 22.902,12.119 23.497,9.330 C24.066,6.592 24.526,3.905 24.797,2.473 C24.851,2.115 24.905,1.833 24.932,1.654 C25.013,1.142 25.068,0.554 24.661,0.222 ZM8.066,11.606 L19.978,4.520 C20.005,4.494 20.060,4.469 20.086,4.443 L20.086,4.443 C20.114,4.443 20.114,4.417 20.141,4.417 C20.168,4.417 20.168,4.417 20.195,4.392 C20.168,4.417 20.141,4.494 20.086,4.546 L16.811,7.437 C14.537,9.408 12.560,10.991 10.584,12.680 C10.584,12.680 10.584,12.680 10.584,12.705 L10.557,12.731 C10.557,12.731 10.557,12.757 10.529,12.757 C10.529,12.782 10.529,12.782 10.502,12.808 L10.502,12.834 C10.502,12.834 10.502,12.834 10.502,12.859 C10.367,14.292 10.123,16.748 10.015,17.848 C10.015,17.848 10.015,17.848 10.015,17.823 C9.907,17.515 8.391,12.629 8.066,11.606 Z"/>
</svg>