<svg 
 xmlns="http://www.w3.org/2000/svg"
 xmlns:xlink="http://www.w3.org/1999/xlink"
 width="13px" height="21px">
<path fill-rule="evenodd"  fill="rgb(25, 25, 25)"
 d="M11.266,21.000 L1.733,21.000 C0.776,21.000 -0.000,20.248 -0.000,19.320 L-0.000,1.680 C-0.000,0.752 0.776,-0.000 1.733,-0.000 L11.266,-0.000 C12.224,-0.000 13.000,0.752 13.000,1.680 L13.000,19.320 C13.000,20.248 12.224,21.000 11.266,21.000 ZM6.500,20.160 C7.218,20.160 7.800,19.596 7.800,18.900 C7.800,18.204 7.218,17.640 6.500,17.640 C5.782,17.640 5.200,18.204 5.200,18.900 C5.200,19.596 5.782,20.160 6.500,20.160 ZM8.667,0.840 L4.333,0.840 L4.333,1.680 L8.667,1.680 L8.667,0.840 ZM11.266,3.360 C11.266,2.896 10.879,2.520 10.400,2.520 L2.600,2.520 C2.121,2.520 1.733,2.896 1.733,3.360 L1.733,15.960 C1.733,16.424 2.121,16.800 2.600,16.800 L10.400,16.800 C10.879,16.800 11.266,16.424 11.266,15.960 L11.266,3.360 ZM7.772,10.893 C6.152,12.464 4.512,12.867 4.073,12.441 C3.692,12.072 3.025,11.621 3.893,10.945 C4.760,10.270 5.002,10.602 5.396,10.983 C5.671,11.250 6.366,10.693 6.966,10.112 C7.566,9.530 8.140,8.856 7.866,8.589 C7.472,8.208 7.130,7.973 7.827,7.133 C8.524,6.292 8.988,6.937 9.370,7.307 C9.810,7.733 9.393,9.322 7.772,10.893 Z"/>
</svg>