<svg 
 xmlns="http://www.w3.org/2000/svg"
 xmlns:xlink="http://www.w3.org/1999/xlink"
 width="21px" height="25px">
<path fill-rule="evenodd"  fill="rgb(25, 25, 25)"
 d="M20.870,7.203 C20.734,6.352 20.526,5.528 20.183,4.748 C19.631,3.481 18.814,2.486 17.744,1.734 C16.862,1.111 15.903,0.689 14.885,0.424 C13.816,0.139 12.726,0.023 11.624,0.010 C10.762,-0.005 9.906,-0.012 9.050,0.017 C8.330,0.038 7.617,0.109 6.904,0.239 C5.750,0.446 4.661,0.846 3.636,1.477 C2.274,2.321 1.276,3.525 0.667,5.114 C0.239,6.231 0.044,7.404 0.005,8.606 C-0.014,9.136 0.031,9.666 0.025,10.196 C0.018,10.453 0.025,10.718 0.031,10.975 C0.037,11.341 0.090,11.706 0.090,12.072 C0.090,12.458 0.116,12.843 0.161,13.231 C0.284,14.219 0.505,15.178 0.900,16.079 C1.315,17.017 1.879,17.819 2.599,18.499 C3.280,19.143 4.051,19.601 4.881,19.966 C5.030,20.037 5.010,20.017 5.010,20.188 C5.004,20.926 4.991,21.663 4.985,22.400 C4.978,23.130 4.965,23.868 4.971,24.599 C4.971,24.648 4.965,24.713 4.978,24.762 C5.024,24.991 5.205,25.063 5.381,24.934 C5.452,24.885 5.516,24.812 5.575,24.741 C6.126,24.039 6.683,23.332 7.241,22.622 C7.695,22.050 8.143,21.477 8.589,20.904 C8.648,20.825 8.713,20.797 8.804,20.804 C9.089,20.840 9.374,20.833 9.660,20.833 C10.217,20.825 10.775,20.833 11.332,20.833 C12.240,20.833 13.147,20.754 14.043,20.590 C15.184,20.374 16.273,19.981 17.290,19.351 C18.523,18.585 19.463,17.526 20.085,16.123 C20.591,14.978 20.824,13.754 20.896,12.487 C20.915,12.028 20.915,11.570 20.941,11.112 C20.980,10.447 20.993,9.773 21.000,9.100 C21.006,8.463 20.967,7.834 20.870,7.203 ZM16.163,15.335 C16.072,15.707 15.903,16.030 15.683,16.324 C15.300,16.838 14.833,17.224 14.256,17.432 C14.101,17.490 13.945,17.526 13.783,17.540 C13.575,17.562 13.381,17.483 13.186,17.419 C12.998,17.361 12.823,17.261 12.649,17.175 C11.773,16.745 10.930,16.237 10.133,15.650 C8.933,14.769 7.864,13.738 6.930,12.530 C6.236,11.627 5.633,10.654 5.121,9.608 C4.790,8.942 4.499,8.256 4.252,7.547 C4.155,7.240 4.097,6.846 4.097,6.553 C4.116,5.678 4.479,5.021 5.134,4.548 C5.406,4.347 5.704,4.190 6.029,4.119 C6.365,4.039 6.690,4.090 6.975,4.326 C7.163,4.476 7.319,4.662 7.474,4.849 C7.993,5.479 8.434,6.158 8.791,6.918 C8.849,7.046 8.901,7.182 8.940,7.325 C9.050,7.734 8.966,8.091 8.719,8.407 C8.629,8.521 8.525,8.621 8.415,8.714 C8.311,8.793 8.207,8.878 8.110,8.979 C7.883,9.215 7.818,9.501 7.889,9.830 C7.915,9.967 7.961,10.095 8.006,10.217 C8.272,10.861 8.629,11.442 9.089,11.942 C9.361,12.235 9.653,12.493 9.977,12.714 C10.288,12.930 10.600,13.131 10.950,13.267 C11.274,13.396 11.520,13.317 11.735,13.017 C11.825,12.886 11.903,12.751 12.007,12.629 C12.201,12.400 12.422,12.229 12.700,12.157 C13.005,12.079 13.297,12.135 13.575,12.271 C13.841,12.393 14.075,12.579 14.308,12.758 C14.775,13.116 15.229,13.496 15.670,13.889 C15.786,13.997 15.891,14.118 15.988,14.254 C16.214,14.584 16.260,14.949 16.163,15.335 ZM14.885,9.773 C14.840,10.038 14.671,10.189 14.418,10.196 C14.152,10.203 13.984,10.074 13.926,9.809 C13.900,9.709 13.900,9.601 13.887,9.494 C13.841,9.015 13.738,8.542 13.569,8.091 C13.336,7.447 12.914,7.010 12.337,6.738 C11.935,6.553 11.520,6.416 11.092,6.344 C10.976,6.322 10.865,6.294 10.762,6.237 C10.710,6.208 10.664,6.173 10.632,6.122 C10.490,5.929 10.496,5.721 10.574,5.507 C10.638,5.314 10.775,5.207 10.962,5.184 C11.118,5.163 11.274,5.193 11.430,5.220 C11.864,5.293 12.286,5.414 12.688,5.622 C13.200,5.893 13.641,6.273 14.017,6.745 C14.334,7.154 14.574,7.605 14.730,8.112 C14.840,8.506 14.899,8.899 14.905,9.336 C14.899,9.459 14.918,9.616 14.885,9.773 ZM13.290,9.200 C13.290,9.344 13.290,9.487 13.245,9.624 C13.180,9.830 13.044,9.952 12.850,9.980 C12.649,10.010 12.486,9.931 12.376,9.744 C12.318,9.651 12.292,9.551 12.279,9.444 C12.253,9.265 12.234,9.079 12.168,8.914 C12.032,8.550 11.773,8.335 11.436,8.235 C11.371,8.214 11.300,8.198 11.235,8.185 C11.183,8.170 11.125,8.155 11.073,8.141 C10.833,8.062 10.710,7.898 10.710,7.668 C10.710,7.397 10.846,7.175 11.073,7.104 C11.293,7.032 11.520,7.046 11.741,7.111 C12.266,7.276 12.655,7.640 12.960,8.126 C13.161,8.441 13.290,8.800 13.290,9.200 ZM16.584,10.038 C16.539,10.447 16.214,10.662 15.871,10.503 C15.663,10.410 15.599,10.210 15.579,9.987 C15.560,9.716 15.540,9.444 15.501,9.172 C15.371,8.335 15.164,7.526 14.756,6.795 C14.451,6.251 14.055,5.808 13.563,5.458 C12.992,5.049 12.357,4.813 11.695,4.648 C11.410,4.576 11.118,4.519 10.826,4.490 C10.756,4.483 10.690,4.469 10.626,4.440 C10.425,4.361 10.321,4.196 10.334,3.961 C10.360,3.546 10.574,3.380 10.865,3.380 C11.974,3.359 12.986,3.681 13.913,4.347 C14.457,4.742 14.943,5.207 15.345,5.771 C16.124,6.867 16.578,8.112 16.584,9.466 C16.578,9.702 16.603,9.873 16.584,10.038 Z"/>
</svg>