<svg 
 xmlns="http://www.w3.org/2000/svg"
 xmlns:xlink="http://www.w3.org/1999/xlink"
 width="25px" height="25px">
<path fill-rule="evenodd"  fill="rgb(25, 25, 25)"
 d="M25.000,12.176 C25.000,18.902 19.505,24.354 12.727,24.354 C10.575,24.354 8.553,23.804 6.794,22.838 L-0.001,24.997 L2.215,18.464 C1.097,16.628 0.454,14.476 0.454,12.176 C0.454,5.450 5.948,-0.003 12.727,-0.003 C19.506,-0.003 25.000,5.450 25.000,12.176 M12.727,1.937 C7.037,1.937 2.408,6.530 2.408,12.176 C2.408,14.415 3.139,16.490 4.374,18.179 L3.085,21.981 L7.050,20.721 C8.679,21.790 10.631,22.414 12.727,22.414 C18.416,22.414 23.045,17.822 23.045,12.176 C23.045,6.531 18.416,1.937 12.727,1.937 M18.924,14.980 C18.848,14.856 18.648,14.781 18.347,14.632 C18.046,14.482 16.567,13.761 16.292,13.661 C16.016,13.561 15.815,13.512 15.615,13.810 C15.414,14.109 14.838,14.781 14.662,14.980 C14.486,15.179 14.311,15.205 14.010,15.056 C13.709,14.907 12.740,14.592 11.591,13.574 C10.697,12.783 10.093,11.806 9.918,11.507 C9.742,11.209 9.899,11.047 10.049,10.899 C10.185,10.765 10.351,10.551 10.501,10.376 C10.652,10.200 10.702,10.077 10.801,9.878 C10.902,9.678 10.852,9.504 10.776,9.355 C10.701,9.205 10.099,7.738 9.849,7.139 C9.598,6.542 9.348,6.641 9.172,6.641 C8.997,6.641 8.796,6.616 8.595,6.616 C8.395,6.616 8.069,6.691 7.793,6.989 C7.517,7.288 6.740,8.011 6.740,9.479 C6.740,10.948 7.818,12.367 7.969,12.566 C8.119,12.766 10.049,15.878 13.107,17.073 C16.166,18.267 16.166,17.868 16.718,17.819 C17.269,17.769 18.497,17.096 18.749,16.399 C18.999,15.703 18.999,15.105 18.924,14.980 "/>
</svg>